<svg width="72" height="72" viewBox="0 0 72 72" fill="none" xmlns="http://www.w3.org/2000/svg">
<path d="M32.2954 46H35.4199L28.5513 26.9761H25.3608L18.4922 46H21.564L23.3042 40.8584H30.5552L32.2954 46ZM26.8901 30.1401H26.9692L29.8037 38.4854H24.0557L26.8901 30.1401ZM44.8594 46.3164C49.2363 46.3164 52.2158 44.0093 52.9409 40.0806H50.001C49.4077 42.3745 47.5225 43.7324 44.8726 43.7324C41.3789 43.7324 39.1641 40.9243 39.1641 36.4814C39.1641 32.0781 41.4053 29.2437 44.8594 29.2437C47.4434 29.2437 49.4736 30.8389 50.001 33.2778H52.9277C52.4268 29.3096 49.1704 26.6597 44.8594 26.6597C39.5464 26.6597 36.145 30.4565 36.145 36.4814C36.145 42.5459 39.52 46.3164 44.8594 46.3164Z" fill="#808080"/>
</svg>
